PathFileType	4	(X/Y/Z)	SUBJ32_4_walk_RCNL2025.trc
DataRate	CameraRate	NumFrames	NumMarkers	Units	OrigDataRate	OrigDataStartFrame	OrigNumFrames
100	100	4	25	mm	100	205	273
Frame#	Time	R_Shoulder			L_Shoulder			C7			J_Notch			R_Elbow			L_Elbow			R_Wrist			L_Wrist			R_Asis			L_Asis			Sacral			Thoracic			Sternum			R_Thigh_Lateral			R_Knee_Lateral			R_Shank_Lateral			R_Ankle_Lateral			R_Heel			R_Toe			L_Thigh_Lateral			L_Knee_Lateral			L_Shank_Lateral			L_Ankle_Lateral			L_Heel			L_Toe		
		X1	Y1	Z1	X2	Y2	Z2	X3	Y3	Z3	X4	Y4	Z4	X5	Y5	Z5	X6	Y6	Z6	X7	Y7	Z7	X8	Y8	Z8	X9	Y9	Z9	X10	Y10	Z10	X11	Y11	Z11	X12	Y12	Z12	X13	Y13	Z13	X14	Y14	Z14	X15	Y15	Z15	X16	Y16	Z16	X17	Y17	Z17	X18	Y18	Z18	X19	Y19	Z19	X20	Y20	Z20	X21	Y21	Z21	X22	Y22	Z22	X23	Y23	Z23	X24	Y24	Z24	X25	Y25	Z25
205	2.04000000	646.434448	1365.554810	300.033539	624.344971	1352.046631	-68.182175	604.756042	1437.563843	126.852440	729.287964	1331.000977	116.041008	576.744385	1043.972656	423.998413	543.153809	1038.574829	-156.627426	668.688477	811.339294	450.538971	616.126709	788.475891	-177.596878	694.775391	901.121460	245.658142	698.552429	896.498718	-4.234222	498.893494	949.129028	121.233582	502.910431	1209.285400	126.951508	791.979370	1105.713745	119.509804	610.384277	540.027588	335.011230	614.974121	455.205505	297.606812	506.768311	347.157074	360.895996	340.455353	204.084396	243.644516	303.923767	239.067978	187.989517	397.328125	87.688171	212.733292	659.512878	554.388489	-92.083870	681.876831	465.591919	-43.796738	673.312317	240.235275	-58.376030	659.283997	59.110416	40.358189	610.420654	52.142426	89.000145	796.477539	43.044598	63.863331
206	2.05000000	655.370789	1366.704956	299.161438	634.790710	1353.433838	-69.204582	614.224304	1438.802734	125.818962	739.046631	1332.697510	115.275246	585.106079	1045.011719	422.609344	557.854858	1039.429688	-159.691803	675.964355	811.960663	449.291656	636.638550	791.226379	-180.367577	705.725647	902.832214	244.749313	708.060608	897.404907	-5.469878	509.147583	950.385010	120.942146	513.046753	1210.379272	125.634895	802.047668	1107.235718	118.310249	629.527039	541.395386	334.094299	635.556519	457.320679	296.369202	528.179504	349.234863	359.750000	363.885010	203.269272	243.031540	325.828064	236.569031	187.193451	425.170135	89.462975	213.570587	664.280457	554.836365	-92.790253	685.152832	465.579742	-44.453442	674.383118	240.257446	-58.704468	659.388123	59.226170	40.368671	610.449707	52.435345	89.096725	796.517029	42.983608	63.767906
207	2.06000000	664.279419	1367.796265	298.349304	645.108093	1354.818237	-70.148727	623.638428	1439.980591	124.887505	748.737122	1334.301880	114.574356	593.337952	1045.992310	421.235291	572.567627	1040.341797	-162.684479	683.239868	812.602905	448.066299	657.123657	794.176422	-183.047928	716.651611	904.509277	243.790253	717.439087	898.285156	-6.739664	519.318604	951.574280	120.749672	523.082520	1211.411987	124.446564	811.997375	1108.702881	117.152168	648.621033	542.924988	333.208923	655.847595	459.475220	295.018494	549.670044	350.850037	358.574280	388.125824	201.196228	242.393936	348.430145	232.724579	186.525223	454.258972	90.369362	213.952377	668.722534	555.261597	-93.386642	688.140686	465.567566	-45.027706	675.192688	240.298447	-58.937050	659.493774	59.363739	40.413345	610.457825	52.721497	89.230713	796.548950	42.932209	63.659176
208	2.07000000	673.186340	1368.826050	297.587158	655.318176	1356.193481	-71.023262	632.997681	1441.082642	124.041847	758.360107	1335.799072	113.930450	601.445435	1046.917603	419.861298	587.278137	1041.310425	-165.587830	690.508270	813.254791	446.859772	677.550720	797.321320	-185.626350	727.554382	906.122498	242.769882	726.700928	899.136902	-8.037528	529.416260	952.681335	120.648514	533.026611	1212.363159	123.380539	821.836670	1110.103638	116.033813	667.641174	544.583313	332.363312	675.855774	461.608337	293.587555	571.351929	351.824371	357.399078	413.149170	197.956528	241.715134	371.807312	227.619019	185.933792	484.395874	90.447945	213.937668	672.922180	555.669495	-93.889328	690.878662	465.555664	-45.516552	675.782776	240.355362	-59.073734	659.601929	59.519646	40.493767	610.445984	52.993484	89.394798	796.574097	42.891598	63.541649
